<svg width="47" height="46" viewBox="0 0 47 46" fill="none" xmlns="http://www.w3.org/2000/svg">
<g clip-path="url(#clip0_81_1748)">
<path d="M17.9482 0.0930786C18.5471 0.0932783 19.0603 0.520896 19.1689 1.10968C19.6937 3.96006 20.1944 6.24294 20.8213 8.06964C21.4476 9.89464 22.1954 11.2494 23.2021 12.2562C24.209 13.2628 25.5638 14.0098 27.3887 14.636C29.2153 15.2628 31.4975 15.7637 34.3477 16.2884C34.9369 16.397 35.3643 16.911 35.3643 17.5101C35.3641 18.109 34.9365 18.6222 34.3477 18.7308C31.4975 19.2554 29.2153 19.7563 27.3887 20.3831C25.5635 21.0094 24.209 21.7571 23.2021 22.764C22.1953 23.7708 21.4486 25.1253 20.8223 26.9505C20.1955 28.7772 19.6937 31.0592 19.1689 33.9095C19.0603 34.4984 18.547 34.9259 17.9482 34.9261C17.3491 34.9261 16.8352 34.4985 16.7266 33.9095C16.2018 31.0593 15.701 28.7771 15.0742 26.9505C14.448 25.1256 13.701 23.7708 12.6943 22.764C11.6875 21.7572 10.3328 21.0094 8.50781 20.3831C6.68111 19.7563 4.39824 19.2555 1.54785 18.7308C0.958943 18.6221 0.53145 18.1089 0.53125 17.5101C0.53125 16.911 0.958918 16.3971 1.54785 16.2884C4.39824 15.7637 6.68111 15.2629 8.50781 14.636C10.3328 14.0098 11.6876 13.263 12.6943 12.2562C13.7012 11.2493 14.4479 9.8938 15.0742 8.06866C15.701 6.24206 16.2018 3.9598 16.7266 1.10968C16.8352 0.520621 17.3492 0.0930786 17.9482 0.0930786ZM17.9473 7.14386C17.1197 10.1611 16.0937 12.3684 14.4502 14.012C12.8067 15.6556 10.5992 16.6816 7.58203 17.5091C10.5994 18.3366 12.8066 19.3636 14.4502 21.0071C16.0936 22.6505 17.1198 24.8576 17.9473 27.8743C18.7748 24.8575 19.802 22.6506 21.4453 21.0071C23.0887 19.3637 25.2957 18.3365 28.3125 17.5091C25.2958 16.6816 23.0887 15.6554 21.4453 14.012C19.8017 12.3685 18.7747 10.1612 17.9473 7.14386Z" fill="black" stroke="black" stroke-width="0.5"/>
<path d="M35.5029 22.8502C36.1019 22.8502 36.6161 23.2778 36.7246 23.8668C37.0518 25.6433 37.3606 27.0591 37.7422 28.1842C38.1234 29.3082 38.5713 30.1247 39.1641 30.7174C39.7568 31.3102 40.5734 31.7581 41.6973 32.1393C42.8224 32.5208 44.2381 32.8299 46.0146 33.1569C46.6037 33.2655 47.0312 33.7794 47.0312 34.3785C47.0312 34.9775 46.6039 35.4917 46.0146 35.6002C44.2381 35.9273 42.8224 36.2363 41.6973 36.6178C40.5733 36.999 39.7568 37.4469 39.1641 38.0397C38.5713 38.6324 38.1234 39.4489 37.7422 40.5729C37.3606 41.698 37.0518 43.1137 36.7246 44.8903C36.6161 45.4794 36.102 45.9069 35.5029 45.9069C34.9037 45.9069 34.3899 45.4793 34.2812 44.8903C33.9542 43.1137 33.6452 41.698 33.2637 40.5729C32.8825 39.4489 32.4345 38.6324 31.8418 38.0397C31.249 37.4469 30.4325 36.9989 29.3086 36.6178C28.1835 36.2363 26.7677 35.9273 24.9912 35.6002C24.4021 35.4917 23.9746 34.9775 23.9746 34.3785C23.9747 33.7794 24.4022 33.2655 24.9912 33.1569C26.7677 32.8299 28.1835 32.5208 29.3086 32.1393C30.4325 31.7581 31.2491 31.3102 31.8418 30.7174C32.4345 30.1246 32.8825 29.3081 33.2637 28.1842C33.6452 27.0591 33.9542 25.6433 34.2812 23.8668C34.39 23.2777 34.9039 22.8502 35.5029 22.8502ZM35.5029 29.2789C35.019 30.6201 34.4261 31.6565 33.6035 32.4791C32.7809 33.3018 31.7445 33.8946 30.4033 34.3785C31.7445 34.8626 32.7809 35.4563 33.6035 36.2789C34.4257 37.1013 35.0191 38.1367 35.5029 39.4772C35.9867 38.1367 36.5801 37.1013 37.4023 36.2789C38.2248 35.4565 39.2609 34.8625 40.6016 34.3785C39.2611 33.8947 38.2257 33.3014 37.4033 32.4791C36.5807 31.6565 35.9869 30.6201 35.5029 29.2789Z" fill="black" stroke="black" stroke-width="0.5"/>
</g>
<defs>
<clipPath id="clip0_81_1748">
<rect width="46" height="46" fill="white" transform="translate(0.78125)"/>
</clipPath>
</defs>
</svg>
