<svg width="47" height="46" viewBox="0 0 47 46" fill="none" xmlns="http://www.w3.org/2000/svg">
<g clip-path="url(#clip0_81_1738)">
<path d="M39.8435 7.1875L37.7246 9.30637" stroke="black" stroke-width="2" stroke-linecap="round" stroke-linejoin="round"/>
<path d="M37.7246 7.1875L39.8435 9.30637" stroke="black" stroke-width="2" stroke-linecap="round" stroke-linejoin="round"/>
<path d="M39.3906 20.8438C40.383 20.8438 41.1875 20.0393 41.1875 19.0469C41.1875 18.0545 40.383 17.25 39.3906 17.25C38.3982 17.25 37.5938 18.0545 37.5938 19.0469C37.5938 20.0393 38.3982 20.8438 39.3906 20.8438Z" stroke="black" stroke-width="2" stroke-linecap="round" stroke-linejoin="round"/>
<path d="M3.10623 17.1501C3.53058 17.1501 3.87458 16.8061 3.87458 16.3817C3.87458 15.9574 3.53058 15.6134 3.10623 15.6134C2.68189 15.6134 2.33789 15.9574 2.33789 16.3817C2.33789 16.8061 2.68189 17.1501 3.10623 17.1501Z" fill="black"/>
<path d="M10.4875 34.8723L3.09375 40.25" stroke="black" stroke-width="2" stroke-linecap="round" stroke-linejoin="round"/>
<path d="M0.9375 38.0938L6.92253 31.5107" stroke="black" stroke-width="2" stroke-linecap="round" stroke-linejoin="round"/>
<path d="M35.2305 34.8723L42.6242 40.25" stroke="black" stroke-width="2" stroke-linecap="round" stroke-linejoin="round"/>
<path d="M44.7819 38.0938L38.7969 31.5107" stroke="black" stroke-width="2" stroke-linecap="round" stroke-linejoin="round"/>
<path d="M32.5625 34.0853L34.5398 35.3201L39.0852 30.8732L32.5625 24.1364" stroke="black" stroke-width="2" stroke-linejoin="round"/>
<path d="M26.4141 21.5625L26.8741 23.9487" stroke="black" stroke-width="2" stroke-linecap="round" stroke-linejoin="round"/>
<path d="M18.7832 23.8862L19.231 21.5625" stroke="black" stroke-width="2" stroke-linecap="round" stroke-linejoin="round"/>
<path d="M13.1555 34.0853L11.1782 35.3201L6.63281 30.8732L13.1555 24.1364" stroke="black" stroke-width="2" stroke-linejoin="round"/>
<path d="M32.5625 44.4841V24.0436C30.7916 23.5104 28.9808 23.1201 27.1474 22.8764C27.0375 23.9477 26.5338 24.9401 25.734 25.6614C24.9341 26.3826 23.8951 26.7813 22.8181 26.7802C21.7411 26.7791 20.7029 26.3784 19.9045 25.6555C19.1061 24.9327 18.6044 23.9393 18.4966 22.8677C16.6867 23.1095 14.9003 23.5028 13.1562 24.0436V44.4841" stroke="black" stroke-width="2" stroke-linecap="round" stroke-linejoin="round"/>
<path d="M29.9023 6.6427C30.2345 7.43981 30.4055 8.29479 30.4055 9.15833V15.4115" stroke="black" stroke-width="2" stroke-linecap="round" stroke-linejoin="round"/>
<path d="M15.3125 15.4057V9.15546" stroke="black" stroke-width="2" stroke-linecap="round" stroke-linejoin="round"/>
<path d="M15.3125 16.1245C15.3305 17.1128 15.6375 18.0742 16.1957 18.89C16.7539 19.7058 17.5388 20.3403 18.4534 20.7151L21.3011 22.6773C21.793 22.8903 22.3233 23.0002 22.8594 23.0002C23.3954 23.0002 23.9257 22.8903 24.4176 22.6773L27.2653 20.7151C28.18 20.3403 28.9649 19.7058 29.523 18.89C30.0812 18.0742 30.3883 17.1128 30.4062 16.1245V13.2495C30.3883 14.2378 30.0812 15.1992 29.523 16.015C28.9649 16.8308 28.18 17.4653 27.2653 17.8401L24.4176 19.0835C23.9257 19.2965 23.3954 19.4064 22.8594 19.4064C22.3233 19.4064 21.793 19.2965 21.3011 19.0835L18.4534 17.8401C17.5388 17.4653 16.7539 16.8308 16.1957 16.015C15.6375 15.1992 15.3305 14.2378 15.3125 13.2495V16.1245Z" stroke="black" stroke-width="2" stroke-linecap="round" stroke-linejoin="round"/>
<path d="M30.7051 12.2188H31.1248C31.5061 12.2188 31.8717 12.3702 32.1413 12.6398C32.4109 12.9094 32.5623 13.275 32.5623 13.6562C32.5623 14.0375 32.4109 14.4031 32.1413 14.6727C31.8717 14.9423 31.5061 15.0938 31.1248 15.0938H30.7051" stroke="black" stroke-width="2" stroke-linecap="round" stroke-linejoin="round"/>
<path d="M15.0825 12.2188H14.5938C14.2125 12.2188 13.8469 12.3702 13.5773 12.6398C13.3077 12.9094 13.1562 13.275 13.1562 13.6562C13.1562 14.0375 13.3077 14.4031 13.5773 14.6727C13.8469 14.9423 14.2125 15.0938 14.5938 15.0938H15.0566" stroke="black" stroke-width="2" stroke-linecap="round" stroke-linejoin="round"/>
<path d="M16.8815 1.4375C16.4654 1.4375 16.0663 1.60281 15.7721 1.89706C15.4778 2.19131 15.3125 2.5904 15.3125 3.00653V10.0625C16.075 10.0625 16.8063 9.7596 17.3454 9.22043C17.8846 8.68127 18.1875 7.95 18.1875 7.1875H27.0856C28.3476 7.1875 29.5578 6.6862 30.4501 5.79388C31.3424 4.90156 31.8438 3.69131 31.8438 2.42938V1.4375H16.8815Z" stroke="black" stroke-width="2" stroke-linecap="round" stroke-linejoin="round"/>
<path d="M28.9688 4.3125H31.125" stroke="black" stroke-linecap="round" stroke-linejoin="round"/>
<path d="M19.6375 13.5563C20.0618 13.5563 20.4058 13.2123 20.4058 12.788C20.4058 12.3637 20.0618 12.0197 19.6375 12.0197C19.2131 12.0197 18.8691 12.3637 18.8691 12.788C18.8691 13.2123 19.2131 13.5563 19.6375 13.5563Z" fill="black"/>
<path d="M26.1062 13.5563C26.5306 13.5563 26.8746 13.2123 26.8746 12.788C26.8746 12.3637 26.5306 12.0197 26.1062 12.0197C25.6819 12.0197 25.3379 12.3637 25.3379 12.788C25.3379 13.2123 25.6819 13.5563 26.1062 13.5563Z" fill="black"/>
<path d="M19.625 17.9688L21.0625 16.5312H24.6562L26.0938 17.9688" stroke="black" stroke-width="2" stroke-linecap="round" stroke-linejoin="round"/>
<path d="M19.625 31.625L21.0625 30.9062V35.2188" stroke="black" stroke-width="2" stroke-linecap="round" stroke-linejoin="round"/>
<path d="M23.9375 31.625L25.375 30.9062V35.2188" stroke="black" stroke-width="2" stroke-linecap="round" stroke-linejoin="round"/>
</g>
<defs>
<clipPath id="clip0_81_1738">
<rect width="46" height="46" fill="white" transform="translate(0.21875)"/>
</clipPath>
</defs>
</svg>
