<svg width="46" height="46" viewBox="0 0 46 46" fill="none" xmlns="http://www.w3.org/2000/svg">
<g clip-path="url(#clip0_81_1743)">
<path d="M28.3633 34.7266C28.5815 34.6812 28.8065 34.6797 29.0254 34.7217H29.0264C31.255 35.0893 33.2444 35.6734 34.7285 36.4551C36.0633 37.1587 37.625 38.372 37.625 40.2501C37.625 41.4182 37.0005 42.3307 36.2793 42.9883L35.9658 43.2549C35.101 43.9349 33.9499 44.4786 32.6816 44.9005C30.1256 45.7534 26.7022 46.2501 23 46.2501C19.2978 46.2501 15.8744 45.7534 13.3184 44.9005C12.2087 44.5314 11.189 44.0692 10.3721 43.504L10.0342 43.2549C9.19067 42.5867 8.37504 41.585 8.375 40.2501C8.375 38.3749 9.93655 37.1588 11.2715 36.4551L11.5557 36.3106C13.0052 35.601 14.8843 35.0663 16.9736 34.7217C17.4147 34.6487 17.8667 34.7538 18.2305 35.0137C18.5944 35.2738 18.8405 35.6682 18.9141 36.1094C18.9872 36.5505 18.882 37.0025 18.6221 37.3663C18.3621 37.73 17.9683 37.9762 17.5273 38.0499H17.5264C15.4944 38.3866 13.8904 38.8894 12.8447 39.4415L12.8359 39.4464C12.4662 39.6241 12.1301 39.8645 11.8428 40.1573C11.8173 40.1858 11.7941 40.2164 11.7744 40.2491C11.8442 40.3475 11.9249 40.4375 12.0156 40.5167L12.1162 40.5977L12.123 40.6026C12.5109 40.9082 13.1314 41.2456 13.998 41.5626L14.3848 41.6973C16.5123 42.4056 19.558 42.8751 23 42.8751C26.4422 42.8751 29.488 42.4083 31.6152 41.6973C32.6873 41.3399 33.434 40.9516 33.877 40.6026L33.8838 40.5967H33.8848C34.0169 40.5005 34.1314 40.3828 34.2266 40.2501C34.2057 40.215 34.1818 40.1818 34.1543 40.1514C33.8675 39.8611 33.5322 39.6226 33.1641 39.4464L33.1562 39.4424L33.2725 39.2208L33.1562 39.4415C32.1075 38.8892 30.5057 38.3867 28.4736 38.0499V38.0489C28.2524 38.0179 28.0389 37.945 27.8467 37.8311C27.6525 37.716 27.4837 37.5626 27.3496 37.3809C27.2155 37.1992 27.1191 36.9921 27.0664 36.7725C27.0137 36.5529 27.0059 36.3244 27.043 36.1016C27.0801 35.879 27.1614 35.6663 27.2822 35.4756C27.4032 35.2849 27.5613 35.1198 27.7471 34.9913C27.9327 34.8628 28.1422 34.7726 28.3633 34.7266ZM18.166 0.791077C20.227 -0.139123 22.513 -0.454688 24.749 -0.118103C26.985 0.218482 29.0766 1.19286 30.7725 2.68854C32.4683 4.18427 33.6963 6.13805 34.3096 8.31451C34.9228 10.4909 34.895 12.798 34.2295 14.959C33.564 17.1201 32.289 19.0436 30.5576 20.4981C28.8828 21.905 26.8493 22.8132 24.6875 23.127V38.8126C24.6875 39.2601 24.5098 39.6895 24.1934 40.0059C23.8769 40.3224 23.4475 40.5001 23 40.5001C22.5525 40.5001 22.1231 40.3224 21.8066 40.0059C21.4902 39.6895 21.3125 39.2601 21.3125 38.8126V23.129C18.557 22.729 16.0299 21.3658 14.1855 19.2735C12.2925 17.1257 11.2484 14.3632 11.25 11.5001C11.2502 9.23885 11.9031 7.02552 13.1299 5.12604C14.3566 3.22669 16.1051 1.72126 18.166 0.791077ZM23 3.12506C21.9002 3.12506 20.811 3.34187 19.7949 3.76276C18.7789 4.18364 17.8558 4.80054 17.0781 5.57819C16.3005 6.35585 15.6836 7.27893 15.2627 8.29498C14.8418 9.31108 14.625 10.4002 14.625 11.5001C14.625 12.5999 14.8418 13.6891 15.2627 14.7051C15.6836 15.7212 16.3005 16.6443 17.0781 17.4219C17.8558 18.1996 18.7789 18.8165 19.7949 19.2374C20.811 19.6582 21.9002 19.8751 23 19.8751C25.2212 19.8751 27.3513 18.9925 28.9219 17.4219C30.4925 15.8513 31.375 13.7212 31.375 11.5001C31.375 9.27889 30.4925 7.1488 28.9219 5.57819C27.3513 4.00757 25.2212 3.12506 23 3.12506Z" fill="black" stroke="black" stroke-width="0.5"/>
</g>
<defs>
<clipPath id="clip0_81_1743">
<rect width="46" height="46" fill="white"/>
</clipPath>
</defs>
</svg>
