<svg width="41" height="40" viewBox="0 0 41 40" fill="none" xmlns="http://www.w3.org/2000/svg">
<g clip-path="url(#clip0_81_1338)">
<path d="M30.39 26.3543C29.0593 25.5669 27.6499 24.9449 26.201 24.4961C25.6971 24.3386 25.1538 24.5591 24.9018 25.0236L20.5002 33.0236L16.1065 25.0236C15.8546 24.5591 15.3113 24.3386 14.8073 24.4961C13.3428 24.9449 11.9254 25.5748 10.6026 26.3543C8.0593 27.874 6.46875 30.7008 6.46875 33.7402V38.8898C6.46875 39.5039 6.96481 40 7.57899 40H33.4136C34.0278 40 34.5239 39.5039 34.5239 38.8898V33.7402C34.5239 30.7008 32.9412 27.874 30.39 26.3543ZM32.3113 37.7795H32.3034H8.6971V36.1811H11.3113C11.9254 36.1811 12.4215 35.685 12.4215 35.0709C12.4215 34.4567 11.9254 33.9606 11.3113 33.9606H8.6971C8.6971 33.9606 8.61836 33.8819 8.83883 32.4488H13.5317C14.1459 32.4488 14.642 31.9528 14.642 31.3386C14.642 30.7244 14.1459 30.2284 13.5317 30.2284H9.74434C10.2562 29.4409 10.9254 28.7638 11.7443 28.2756C12.6577 27.7323 13.6184 27.2756 14.6105 26.9134L19.5317 35.874C19.7286 36.2284 20.0987 36.4488 20.5081 36.4488C20.9097 36.4488 21.2876 36.2284 21.4845 35.874L26.4058 26.9134C27.39 27.2756 28.3506 27.7323 29.264 28.2756C31.1459 29.3937 32.3113 31.4961 32.3113 33.7559V37.7795Z" fill="black"/>
<path d="M20.5 8.18898C16.2244 8.18898 12.752 11.6693 12.752 15.937C12.752 20.2047 16.2244 23.6929 20.5 23.6929C24.7756 23.6929 28.248 20.2126 28.248 15.9449C28.248 11.6772 24.7756 8.18898 20.5 8.18898ZM20.5 21.4646C17.4527 21.4646 14.9724 18.9843 14.9724 15.937C14.9724 12.8898 17.4527 10.4095 20.5 10.4095C23.5472 10.4095 26.0275 12.8898 26.0275 15.937C26.0275 18.9843 23.5472 21.4646 20.5 21.4646Z" fill="black"/>
<path d="M20.5009 0C19.8867 0 19.3906 0.496063 19.3906 1.11024V3.94488C19.3906 4.55905 19.8867 5.05512 20.5009 5.05512C21.115 5.05512 21.6111 4.55905 21.6111 3.94488V1.11024C21.6111 0.496063 21.115 0 20.5009 0Z" fill="black"/>
<path d="M12.8079 6.66929L10.8 4.66141C10.3669 4.22834 9.66614 4.22834 9.22519 4.66141C8.79212 5.09448 8.79212 5.79527 9.22519 6.23621L11.2331 8.24409C11.6031 8.59055 12.3827 8.63779 12.8079 8.24409C13.2567 7.82677 13.2409 7.11023 12.8079 6.66929Z" fill="black"/>
<path d="M8.50738 14.8268H5.67274C5.05856 14.8268 4.5625 15.3228 4.5625 15.937C4.5625 16.5512 5.05856 17.0472 5.67274 17.0472H8.50738C9.12155 17.0472 9.61762 16.5512 9.61762 15.937C9.61762 15.3228 9.12155 14.8268 8.50738 14.8268Z" fill="black"/>
<path d="M35.3277 14.8268H32.493C31.8789 14.8268 31.3828 15.3228 31.3828 15.937C31.3828 16.5512 31.8789 17.0472 32.493 17.0472H35.3277C35.9419 17.0472 36.4379 16.5512 36.4379 15.937C36.4379 15.3228 35.9419 14.8268 35.3277 14.8268Z" fill="black"/>
<path d="M31.7747 4.66141C31.3417 4.22834 30.6409 4.22834 30.1999 4.66141L28.1921 6.66929C27.759 7.10236 27.7432 7.81889 28.1921 8.24409C28.5306 8.55905 29.3968 8.5748 29.7669 8.24409L31.7747 6.23621C32.2078 5.80314 32.2078 5.10236 31.7747 4.66141Z" fill="black"/>
</g>
<defs>
<clipPath id="clip0_81_1338">
<rect width="40" height="40" fill="white" transform="translate(0.5)"/>
</clipPath>
</defs>
</svg>
