<svg width="18" height="19" viewBox="0 0 18 19" fill="none" xmlns="http://www.w3.org/2000/svg">
<path d="M5.71887 2.93738C4.84936 2.93998 4.01621 3.28654 3.40138 3.90138C2.78654 4.51621 2.43998 5.34936 2.43738 6.21887V12.7811C2.43998 13.6506 2.78654 14.4838 3.40138 15.0986C4.01621 15.7135 4.84936 16.06 5.71887 16.0626H12.2811C13.1506 16.06 13.9838 15.7135 14.5986 15.0986C15.2135 14.4838 15.56 13.6506 15.5626 12.7811V6.21887C15.56 5.34936 15.2135 4.51621 14.5986 3.90138C13.9838 3.28654 13.1506 2.93998 12.2811 2.93738H5.71887ZM5.71887 1.625H12.2811C14.8078 1.625 16.875 3.69219 16.875 6.21887V12.7811C16.875 15.3078 14.8078 17.375 12.2811 17.375H5.71887C3.19219 17.375 1.125 15.3078 1.125 12.7811V6.21887C1.125 3.69219 3.19219 1.625 5.71887 1.625Z" fill="white"/>
<path d="M4.73437 6.21875C4.92907 6.21875 5.11938 6.16102 5.28126 6.05285C5.44314 5.94469 5.56931 5.79095 5.64382 5.61108C5.71832 5.43121 5.73782 5.23328 5.69983 5.04233C5.66185 4.85138 5.5681 4.67598 5.43043 4.53832C5.29277 4.40065 5.11737 4.3069 4.92642 4.26891C4.73547 4.23093 4.53754 4.25043 4.35767 4.32493C4.1778 4.39944 4.02406 4.52561 3.9159 4.68749C3.80773 4.84937 3.75 5.03968 3.75 5.23437C3.74972 5.36372 3.77499 5.49185 3.82436 5.61141C3.87374 5.73096 3.94623 5.83959 4.0377 5.93105C4.12916 6.02252 4.23779 6.09501 4.35734 6.14438C4.4769 6.19376 4.60503 6.21903 4.73437 6.21875Z" fill="white"/>
<path d="M9 6.87488C8.4808 6.87488 7.97326 7.02884 7.54156 7.3173C7.10986 7.60575 6.7734 8.01573 6.57471 8.49541C6.37602 8.97509 6.32403 9.50291 6.42532 10.0121C6.52662 10.5214 6.77663 10.9891 7.14376 11.3562C7.51089 11.7234 7.97864 11.9734 8.48787 12.0747C8.99709 12.176 9.52491 12.124 10.0046 11.9253C10.4843 11.7266 10.8943 11.3901 11.1827 10.9584C11.4712 10.5267 11.6251 10.0192 11.6251 9.5C11.6244 8.804 11.3476 8.13673 10.8554 7.64458C10.3633 7.15244 9.696 6.87563 9 6.87488ZM9 5.5625C9.77876 5.5625 10.54 5.79343 11.1876 6.22609C11.8351 6.65875 12.3398 7.2737 12.6378 7.99318C12.9358 8.71267 13.0138 9.50437 12.8618 10.2682C12.7099 11.032 12.3349 11.7336 11.7842 12.2842C11.2336 12.8349 10.532 13.2099 9.76817 13.3618C9.00437 13.5138 8.21267 13.4358 7.49318 13.1378C6.7737 12.8398 6.15875 12.3351 5.72609 11.6876C5.29343 11.04 5.0625 10.2788 5.0625 9.5C5.0625 8.45571 5.47734 7.45419 6.21577 6.71577C6.95419 5.97734 7.95571 5.5625 9 5.5625Z" fill="white"/>
</svg>
