<svg width="80" height="98" viewBox="0 0 80 98" fill="none" xmlns="http://www.w3.org/2000/svg">
<g clip-path="url(#clip0_40_442)">
<path fill-rule="evenodd" clip-rule="evenodd" d="M5.75514 75.3671C6.66932 77.5234 7.09705 78.8857 8.67306 80.721C10.0827 82.3626 11.2696 83.4027 13.1743 84.4619C17.0882 86.6385 22.5026 87.4245 26.9117 87.0681C36.3494 86.3051 43.3248 81.7461 44.5056 71.7099C44.8159 69.0731 44.6927 66.3028 44.699 63.642C44.7055 60.8848 44.667 58.114 44.7029 55.3592C44.7677 50.3996 46.7612 47.5758 49.7956 43.964C52.1502 41.1615 60.6726 33.5536 61.9645 31.4175C63.3592 29.1106 60.9953 26.6439 58.6305 27.8254C57.4867 28.3968 51.2907 33.4395 49.218 34.8667C45.2192 37.6202 42.0625 39.624 36.9762 39.005C33.4896 38.5809 28.8307 35.6236 25.9254 33.6275L16.4063 26.6938C13.8568 25.2081 11.9714 28.7673 13.3049 30.5132C14.3675 31.9044 16.1862 33.3209 17.4149 34.6448C22.2933 39.9005 30.4102 45.5072 31.4254 53.5853C31.6606 55.4571 31.6909 67.9055 31.4665 69.7353C31.4267 70.4539 31.3012 71.0923 31.0733 71.7693L31.0292 71.8046C30.7876 72.9875 29.7822 74.5582 28.6985 75.0139L28.6589 75.0969C26.2348 76.277 22.9896 76.2619 20.8257 74.542C18.5902 72.7649 18.6533 69.5792 18.6585 66.8607C18.6713 60.2467 18.6398 53.6298 18.6737 47.0174C17.3419 47.4315 16.6659 48.0022 15.085 47.6731C13.6028 47.3643 13.3312 46.8947 12.3204 46.0057C10.9815 44.8283 11.1266 44.7241 9.19692 44.7291C7.80919 44.7326 6.09026 44.6372 4.74418 44.7605C4.79417 50.0103 4.72728 55.284 4.74314 60.5379C4.75364 63.9628 4.5765 68.7445 5.01929 72.0044C5.18393 73.2169 5.55854 74.2571 5.75514 75.367V75.3671Z" fill="url(#paint0_linear_40_442)"/>
<path fill-rule="evenodd" clip-rule="evenodd" d="M58.2473 73.9381C57.8413 73.5799 57.4966 73.2156 57.2569 72.902C56.8637 72.388 56.5379 71.7788 56.2834 71.1082C55.7966 69.9777 55.523 68.7069 55.523 67.363C55.523 65.5401 56.0263 63.8511 56.8829 62.4654C57.2892 61.769 57.8001 61.145 58.421 60.6305C59.6885 59.5096 61.2808 58.8422 63.0107 58.8422C67.1466 58.8422 70.4985 62.6572 70.4985 67.363C70.4985 72.0691 67.1467 75.8842 63.0107 75.8842C61.2011 75.8842 59.5415 75.1538 58.2474 73.9381H58.2473ZM56.9333 54.8611C56.6962 52.0644 56.6359 52.0134 53.7965 52.0164C52.8353 52.0174 48.3884 51.9106 47.8473 52.1033C47.6862 52.5063 47.6278 96.7753 47.8433 97.3548C48.2872 97.5418 56.5406 97.5376 57.4151 97.4027L57.4297 81.1489C58.4587 81.7633 60.0972 84.2449 64.4977 84.8029C70.1582 85.5207 75.756 82.3757 78.1367 77.0778C79.4098 74.2446 80.024 71.1277 79.9995 68.0104C79.9551 62.334 77.8522 56.4413 72.9367 53.3785C68.8244 50.8162 62.1474 50.4134 58.3699 53.6554C58.0688 53.9136 57.2205 54.7466 56.9333 54.8611H56.9333Z" fill="url(#paint1_linear_40_442)"/>
<path fill-rule="evenodd" clip-rule="evenodd" d="M37.7561 20.1143C36.0297 20.2532 34.8514 21.0963 33.7429 22.2352C30.6425 25.4203 32.3635 33.3525 38.7736 32.8243C42.2727 32.536 44.2684 29.3058 44.143 25.9295C44.0206 22.6396 41.076 19.8468 37.756 20.1142L37.7561 20.1143Z" fill="url(#paint2_linear_40_442)"/>
<path fill-rule="evenodd" clip-rule="evenodd" d="M6.96604 19.915C1.30381 20.9619 2.78728 29.3611 8.30442 28.3867C10.501 27.9988 12.0936 25.7752 11.7404 23.4879C11.3967 21.2621 9.23319 19.4957 6.96604 19.915Z" fill="url(#paint3_linear_40_442)"/>
<path fill-rule="evenodd" clip-rule="evenodd" d="M66.8121 20.2123C61.3047 21.0174 61.4569 28.859 67.3396 28.6976C71.3781 28.5868 72.309 23.2684 69.8486 21.3258C69.0879 20.7254 67.8375 20.0624 66.8121 20.2124V20.2123Z" fill="url(#paint4_linear_40_442)"/>
<path fill-rule="evenodd" clip-rule="evenodd" d="M59.2402 39.3224C55.701 40.285 56.944 46.3636 60.6761 45.4237C64.1738 44.5429 63.1214 38.2666 59.2402 39.3224Z" fill="url(#paint5_linear_40_442)"/>
<path fill-rule="evenodd" clip-rule="evenodd" d="M14.5864 39.3602C10.9918 40.5749 12.5354 46.4267 16.1062 45.3506C19.7939 44.2392 18.1387 38.1599 14.5864 39.3602Z" fill="url(#paint6_linear_40_442)"/>
<path fill-rule="evenodd" clip-rule="evenodd" d="M66.1911 33.3506C62.869 34.4645 64.5878 39.7625 67.499 38.6459C70.7646 37.3932 69.3482 32.2921 66.1911 33.3506Z" fill="url(#paint7_linear_40_442)"/>
<path fill-rule="evenodd" clip-rule="evenodd" d="M51.811 5.7351C49.6732 6.33346 50.8089 10.3348 53.2288 9.27703C55.3377 8.35504 54.3802 5.01621 51.811 5.7351Z" fill="url(#paint8_linear_40_442)"/>
<path fill-rule="evenodd" clip-rule="evenodd" d="M23.2157 6.11744C20.7574 7.00608 22.2211 10.7534 24.5621 9.62618C26.8197 8.5393 25.2911 5.3673 23.2157 6.11744Z" fill="url(#paint9_linear_40_442)"/>
<path fill-rule="evenodd" clip-rule="evenodd" d="M37.7314 0.693146C35.5966 1.70579 36.8353 5.07117 39.1019 4.20771C41.4412 3.31664 39.9898 -0.378271 37.7314 0.693146Z" fill="url(#paint10_linear_40_442)"/>
<path fill-rule="evenodd" clip-rule="evenodd" d="M55.6366 17.6132C53.4297 18.2287 54.5418 21.7887 56.8211 20.9521C58.6589 20.2773 58.0254 16.947 55.6366 17.6132Z" fill="url(#paint11_linear_40_442)"/>
<path fill-rule="evenodd" clip-rule="evenodd" d="M43.0594 12.5233C41.0108 13.1363 41.704 16.5379 44.1012 15.8042C46.0351 15.2121 45.2837 11.8574 43.0594 12.5233Z" fill="url(#paint12_linear_40_442)"/>
<path fill-rule="evenodd" clip-rule="evenodd" d="M19.019 17.8513C16.9093 18.5968 17.8212 21.6561 20.0806 21.0728C22.0144 20.5737 21.3721 17.0198 19.019 17.8513Z" fill="url(#paint13_linear_40_442)"/>
<path fill-rule="evenodd" clip-rule="evenodd" d="M29.3528 13.8267C27.224 14.735 28.472 17.5905 30.3841 16.8917C32.4353 16.1421 31.318 12.9881 29.3528 13.8267Z" fill="url(#paint14_linear_40_442)"/>
<path fill-rule="evenodd" clip-rule="evenodd" d="M64.829 11.9778C62.9579 12.6712 64.1978 15.8576 66.1627 14.8769C67.9735 13.9731 66.8829 11.2166 64.829 11.9778Z" fill="url(#paint15_linear_40_442)"/>
<path fill-rule="evenodd" clip-rule="evenodd" d="M51.1379 25.4042C48.9544 25.9651 50.1128 29.1797 52.0042 28.5045C53.9103 27.824 53.0846 24.9041 51.1379 25.4042Z" fill="url(#paint16_linear_40_442)"/>
<path fill-rule="evenodd" clip-rule="evenodd" d="M9.9753 11.3954C8.11882 12.2179 9.29313 15.094 11.2405 14.3279C13.0803 13.6041 12.0006 10.4981 9.9753 11.3954Z" fill="url(#paint17_linear_40_442)"/>
<path fill-rule="evenodd" clip-rule="evenodd" d="M73.4645 33.2367C71.3706 33.9615 72.6461 36.8013 74.2909 36.1937C76.3519 35.4324 75.2559 32.6166 73.4645 33.2367Z" fill="url(#paint18_linear_40_442)"/>
<path d="M63.0102 75.884C67.1455 75.884 70.4979 72.069 70.4979 67.363C70.4979 62.657 67.1455 58.842 63.0102 58.842C58.8748 58.842 55.5225 62.657 55.5225 67.363C55.5225 72.069 58.8748 75.884 63.0102 75.884Z" fill="#FCC44E"/>
</g>
<defs>
<linearGradient id="paint0_linear_40_442" x1="36.647" y1="39.0076" x2="36.3115" y2="88.1156" gradientUnits="userSpaceOnUse">
<stop stop-color="#0166AA"/>
<stop offset="1" stop-color="#00A6A2"/>
</linearGradient>
<linearGradient id="paint1_linear_40_442" x1="65.587" y1="60.956" x2="65.2419" y2="98.2311" gradientUnits="userSpaceOnUse">
<stop stop-color="#0166AA"/>
<stop offset="1" stop-color="#00A6A2"/>
</linearGradient>
<linearGradient id="paint2_linear_40_442" x1="38.8355" y1="22.7531" x2="38.7641" y2="33.0518" gradientUnits="userSpaceOnUse">
<stop stop-color="#0166AA"/>
<stop offset="1" stop-color="#00A6A2"/>
</linearGradient>
<linearGradient id="paint3_linear_40_442" x1="8.03522" y1="21.6471" x2="7.9891" y2="28.6018" gradientUnits="userSpaceOnUse">
<stop stop-color="#0166AA"/>
<stop offset="1" stop-color="#00A6A2"/>
</linearGradient>
<linearGradient id="paint4_linear_40_442" x1="67.4523" y1="21.9635" x2="67.4073" y2="28.8351" gradientUnits="userSpaceOnUse">
<stop stop-color="#0166AA"/>
<stop offset="1" stop-color="#00A6A2"/>
</linearGradient>
<linearGradient id="paint5_linear_40_442" x1="60.276" y1="40.5195" x2="60.2391" y2="45.6224" gradientUnits="userSpaceOnUse">
<stop stop-color="#0166AA"/>
<stop offset="1" stop-color="#00A6A2"/>
</linearGradient>
<linearGradient id="paint6_linear_40_442" x1="15.6673" y1="40.5119" x2="15.6308" y2="45.5815" gradientUnits="userSpaceOnUse">
<stop stop-color="#0166AA"/>
<stop offset="1" stop-color="#00A6A2"/>
</linearGradient>
<linearGradient id="paint7_linear_40_442" x1="67.135" y1="34.372" x2="67.1022" y2="38.8883" gradientUnits="userSpaceOnUse">
<stop stop-color="#0166AA"/>
<stop offset="1" stop-color="#00A6A2"/>
</linearGradient>
<linearGradient id="paint8_linear_40_442" x1="52.732" y1="6.43021" x2="52.7114" y2="9.51475" gradientUnits="userSpaceOnUse">
<stop stop-color="#0166AA"/>
<stop offset="1" stop-color="#00A6A2"/>
</linearGradient>
<linearGradient id="paint9_linear_40_442" x1="24.0125" y1="6.80213" x2="23.9919" y2="9.89649" gradientUnits="userSpaceOnUse">
<stop stop-color="#0166AA"/>
<stop offset="1" stop-color="#00A6A2"/>
</linearGradient>
<linearGradient id="paint10_linear_40_442" x1="38.6578" y1="1.30159" x2="38.6367" y2="4.409" gradientUnits="userSpaceOnUse">
<stop stop-color="#0166AA"/>
<stop offset="1" stop-color="#00A6A2"/>
</linearGradient>
<linearGradient id="paint11_linear_40_442" x1="56.3485" y1="18.2658" x2="56.3293" y2="21.1352" gradientUnits="userSpaceOnUse">
<stop stop-color="#0166AA"/>
<stop offset="1" stop-color="#00A6A2"/>
</linearGradient>
<linearGradient id="paint12_linear_40_442" x1="43.7112" y1="13.1594" x2="43.6924" y2="15.9624" gradientUnits="userSpaceOnUse">
<stop stop-color="#0166AA"/>
<stop offset="1" stop-color="#00A6A2"/>
</linearGradient>
<linearGradient id="paint13_linear_40_442" x1="19.7072" y1="18.4384" x2="19.6892" y2="21.2006" gradientUnits="userSpaceOnUse">
<stop stop-color="#0166AA"/>
<stop offset="1" stop-color="#00A6A2"/>
</linearGradient>
<linearGradient id="paint14_linear_40_442" x1="30.0323" y1="14.3765" x2="30.0145" y2="17.0533" gradientUnits="userSpaceOnUse">
<stop stop-color="#0166AA"/>
<stop offset="1" stop-color="#00A6A2"/>
</linearGradient>
<linearGradient id="paint15_linear_40_442" x1="65.6638" y1="12.5165" x2="65.6467" y2="15.1138" gradientUnits="userSpaceOnUse">
<stop stop-color="#0166AA"/>
<stop offset="1" stop-color="#00A6A2"/>
</linearGradient>
<linearGradient id="paint16_linear_40_442" x1="51.6865" y1="26.024" x2="51.6689" y2="28.6488" gradientUnits="userSpaceOnUse">
<stop stop-color="#0166AA"/>
<stop offset="1" stop-color="#00A6A2"/>
</linearGradient>
<linearGradient id="paint17_linear_40_442" x1="10.7825" y1="11.9054" x2="10.7652" y2="14.5075" gradientUnits="userSpaceOnUse">
<stop stop-color="#0166AA"/>
<stop offset="1" stop-color="#00A6A2"/>
</linearGradient>
<linearGradient id="paint18_linear_40_442" x1="74.0532" y1="33.8003" x2="74.0363" y2="36.328" gradientUnits="userSpaceOnUse">
<stop stop-color="#0166AA"/>
<stop offset="1" stop-color="#00A6A2"/>
</linearGradient>
<clipPath id="clip0_40_442">
<rect width="80" height="97" fill="white" transform="translate(0 0.5)"/>
</clipPath>
</defs>
</svg>
