<svg width="23" height="15" viewBox="0 0 23 15" fill="none" xmlns="http://www.w3.org/2000/svg">
<path d="M8.32915 5.66331H2.78987C2.78987 3.64526 4.44419 2.00904 6.48263 2.00904V0.181763C3.4244 0.181763 0.943359 2.63529 0.943359 5.66331V12.9721C0.943359 13.9766 1.77452 14.7991 2.78987 14.7991H8.32915C9.34423 14.7991 10.1754 13.9766 10.1754 12.9721V7.49059C10.1754 6.48582 9.34423 5.66331 8.32915 5.66331Z" fill="white"/>
<path d="M20.6377 5.66319H15.0985C15.0985 3.64514 16.7528 2.00891 18.7912 2.00891V0.181641C15.733 0.181641 13.252 2.63517 13.252 5.66319V12.972C13.252 13.9765 14.0831 14.799 15.0985 14.799H20.6377C21.6528 14.799 22.484 13.9765 22.484 12.972V7.49047C22.484 6.48569 21.6528 5.66319 20.6377 5.66319Z" fill="white"/>
</svg>
