<svg width="41" height="40" viewBox="0 0 41 40" fill="none" xmlns="http://www.w3.org/2000/svg">
<g clip-path="url(#clip0_81_1333)">
<path d="M26.4932 5.9798C26.3938 5.67349 26.1765 5.4193 25.8898 5.27311C25.6026 5.12675 25.2696 5.10068 24.9631 5.20025L19.8833 6.85099C19.2456 7.05822 18.8963 7.74323 19.1037 8.38095L19.3576 9.16261L6.43615 18.654L1.33903 20.3101C1.03271 20.4097 0.778525 20.6268 0.632329 20.9137C0.486132 21.2006 0.459904 21.5339 0.559473 21.8402L3.65647 31.37C3.82323 31.8831 4.29922 32.2093 4.81099 32.2093C4.93549 32.2093 5.06193 32.1901 5.1866 32.1496L10.2829 30.4935L12.9013 30.5073C13.4272 32.9902 15.6355 34.8592 18.2725 34.8592C20.8895 34.8592 23.0833 33.0182 23.6306 30.5638L26.3161 30.5779L26.57 31.3597C26.6694 31.666 26.8865 31.9202 27.1735 32.0664C27.3458 32.1541 27.5349 32.1987 27.7248 32.1987C27.8511 32.1987 27.9778 32.1789 28.0999 32.1392L33.1799 30.4887C33.8176 30.2814 34.1668 29.5964 33.9596 28.9587L26.4932 5.9798ZM5.5907 29.4646L3.24443 22.2444L6.21758 21.2783L8.56352 28.4986L5.5907 29.4646ZM18.2724 32.4307C16.9914 32.4307 15.8934 31.6394 15.437 30.5207L21.0967 30.5505C20.6332 31.6539 19.5422 32.4307 18.2724 32.4307ZM10.9771 28.0686L9.70006 24.1381L8.42299 20.2076L20.1477 11.5955L23.7433 22.6612L25.5252 28.1453L10.9771 28.0686ZM28.5042 29.4544L28.3551 28.9958C28.3549 28.995 28.3547 28.994 28.3544 28.993L25.1464 19.1198L21.7885 8.78522L24.5588 7.88489L31.2745 28.5539L28.5042 29.4544Z" fill="black"/>
<path d="M30.5829 11.8824C30.7597 11.9724 30.9479 12.015 31.1334 12.015C31.5754 12.015 32.0017 11.7728 32.2162 11.3518L34.3955 7.07604C34.7002 6.47863 34.4627 5.74732 33.8653 5.44278C33.2679 5.13841 32.5366 5.3756 32.232 5.97317L30.0527 10.249C29.748 10.8465 29.9855 11.5779 30.5829 11.8824Z" fill="black"/>
<path d="M39.7082 23.429L35.4317 21.2506C34.8341 20.9464 34.103 21.1839 33.7986 21.7815C33.4941 22.3791 33.7319 23.1102 34.3293 23.4146L38.6058 25.5929C38.7824 25.6828 38.9705 25.7254 39.1559 25.7254C39.5979 25.7254 40.0244 25.483 40.2389 25.0621C40.5434 24.4647 40.3057 23.7335 39.7082 23.429Z" fill="black"/>
<path d="M33.5676 16.385C33.7343 16.8981 34.2103 17.2243 34.7221 17.2243C34.8466 17.2243 34.973 17.205 35.0977 17.1646L39.6614 15.6815C40.2989 15.4743 40.6481 14.7893 40.4407 14.1514C40.2335 13.5135 39.5485 13.1651 38.9106 13.3719L34.347 14.8549C33.7094 15.0623 33.3603 15.7473 33.5676 16.385Z" fill="black"/>
</g>
<defs>
<clipPath id="clip0_81_1333">
<rect width="40" height="40" fill="white" transform="translate(0.5)"/>
</clipPath>
</defs>
</svg>
