<svg width="16" height="17" viewBox="0 0 16 17" fill="none" xmlns="http://www.w3.org/2000/svg">
<path fill-rule="evenodd" clip-rule="evenodd" d="M2.3327 8.5C2.3327 5.37039 4.86975 2.83333 7.99935 2.83333C11.1289 2.83333 13.666 5.37039 13.666 8.5C13.666 11.6296 11.1289 14.1667 7.99935 14.1667C6.88455 14.1667 5.84686 13.8455 4.97134 13.2907C4.8084 13.1875 4.60874 13.1599 4.42391 13.2151L2.50448 13.7879L3.22717 12.0969C3.31259 11.897 3.29521 11.6681 3.1806 11.4834C2.64315 10.6173 2.3327 9.59593 2.3327 8.5ZM7.99935 1.5C4.13337 1.5 0.999363 4.63401 0.999363 8.5C0.999363 9.7254 1.31479 10.8789 1.86912 11.8818L0.719663 14.5713C0.618049 14.8091 0.66309 15.0842 0.83523 15.2771C1.00737 15.4701 1.27556 15.5461 1.52334 15.4721L4.52296 14.577C5.54765 15.1643 6.73515 15.5 7.99935 15.5C11.8653 15.5 14.9993 12.366 14.9993 8.5C14.9993 4.63401 11.8653 1.5 7.99935 1.5ZM9.52768 9.95493L8.65155 10.5721C8.24122 10.3383 7.78755 10.0121 7.33248 9.557C6.85942 9.08393 6.5087 8.59553 6.2501 8.14753L6.80688 7.67493C7.04582 7.47213 7.11122 7.13022 6.96402 6.85352L6.25458 5.52019C6.15904 5.34065 5.98679 5.21453 5.78678 5.17769C5.58677 5.14086 5.38089 5.19733 5.22766 5.33106L5.01732 5.51463C4.5115 5.95609 4.21235 6.68153 4.46029 7.41607C4.71734 8.17753 5.2659 9.376 6.3897 10.4998C7.59875 11.7089 8.82688 12.185 9.54508 12.3699C10.1237 12.5189 10.6713 12.3192 11.0572 12.0048L11.4515 11.6835C11.6202 11.5461 11.7112 11.3349 11.6953 11.1179C11.6794 10.9009 11.5586 10.7053 11.3717 10.5939L10.2528 9.92727C10.0268 9.79267 9.74282 9.80347 9.52768 9.95493Z" fill="white"/>
</svg>
