<svg width="41" height="40" viewBox="0 0 41 40" fill="none" xmlns="http://www.w3.org/2000/svg">
<path d="M34.8667 21.7833C34.2334 21.7833 33.7001 21.3 33.6167 20.6667C33.2167 16.9 31.1834 13.4833 28.0501 11.3167C27.4834 10.9167 27.3501 10.15 27.7334 9.58335C28.1334 9.01668 28.9167 8.88335 29.4667 9.26668C33.2001 11.85 35.6001 15.9167 36.0834 20.4C36.1501 21.0833 35.6667 21.7 34.9667 21.7833C34.9501 21.7833 34.9001 21.7833 34.8667 21.7833Z" fill="black"/>
<path d="M6.31651 21.8667C6.26651 21.8667 6.23318 21.8667 6.18318 21.8667C5.49984 21.7833 4.99984 21.1667 5.06651 20.4833C5.51651 16 7.89984 11.95 11.5832 9.33336C12.1498 8.93336 12.9332 9.06669 13.3332 9.63336C13.7332 10.2 13.5998 10.9834 13.0332 11.3834C9.93318 13.5667 7.93318 16.9833 7.54984 20.75C7.49984 21.3833 6.94984 21.8667 6.31651 21.8667Z" fill="black"/>
<path d="M20.6006 37.6833C18.134 37.6833 15.7839 37.1167 13.5839 36.0167C12.9673 35.7 12.7173 34.95 13.0339 34.3333C13.3506 33.7167 14.1006 33.4667 14.7173 33.7833C18.3173 35.6 22.6506 35.6333 26.284 33.8833C26.9006 33.5833 27.6506 33.85 27.9506 34.4667C28.2506 35.0833 27.984 35.8333 27.3673 36.1333C25.234 37.1667 22.9673 37.6833 20.6006 37.6833Z" fill="black"/>
<path d="M20.6001 14.0667C17.3501 14.0667 14.7168 11.4333 14.7168 8.18334C14.7168 4.93334 17.3501 2.3 20.6001 2.3C23.8501 2.3 26.4834 4.93334 26.4834 8.18334C26.4834 11.4333 23.8334 14.0667 20.6001 14.0667ZM20.6001 4.81667C18.7334 4.81667 17.2167 6.33334 17.2167 8.2C17.2167 10.0667 18.7334 11.5833 20.6001 11.5833C22.4667 11.5833 23.9834 10.0667 23.9834 8.2C23.9834 6.33334 22.4501 4.81667 20.6001 4.81667Z" fill="black"/>
<path d="M8.54935 34.45C5.29935 34.45 2.66602 31.8167 2.66602 28.5667C2.66602 25.3333 5.29935 22.6833 8.54935 22.6833C11.7993 22.6833 14.4327 25.3167 14.4327 28.5667C14.4327 31.8 11.7993 34.45 8.54935 34.45ZM8.54935 25.1833C6.68268 25.1833 5.16602 26.7 5.16602 28.5667C5.16602 30.4333 6.68268 31.95 8.54935 31.95C10.416 31.95 11.9327 30.4333 11.9327 28.5667C11.9327 26.7 10.416 25.1833 8.54935 25.1833Z" fill="black"/>
<path d="M32.4497 34.45C29.1997 34.45 26.5664 31.8167 26.5664 28.5667C26.5664 25.3333 29.1997 22.6833 32.4497 22.6833C35.6997 22.6833 38.3331 25.3167 38.3331 28.5667C38.3164 31.8 35.6831 34.45 32.4497 34.45ZM32.4497 25.1833C30.5831 25.1833 29.0664 26.7 29.0664 28.5667C29.0664 30.4333 30.5831 31.95 32.4497 31.95C34.3164 31.95 35.8331 30.4333 35.8331 28.5667C35.8164 26.7 34.3164 25.1833 32.4497 25.1833Z" fill="black"/>
</svg>
