<svg width="41" height="40" viewBox="0 0 41 40" fill="none" xmlns="http://www.w3.org/2000/svg">
<g clip-path="url(#clip0_81_1318)">
<path d="M0.5 30.9677H40.5V9.03226H0.5V30.9677ZM19.8548 23.8129C18.0271 23.5045 16.629 21.9148 16.629 20C16.629 18.0852 18.0271 16.4961 19.8548 16.1871V23.8129ZM39.2097 26.4516H34.0484V13.5484H39.2097V26.4516ZM21.1452 16.1871C22.9729 16.4955 24.371 18.0852 24.371 20C24.371 21.9148 22.9729 23.5039 21.1452 23.8129V16.1871ZM21.1452 25.1168C23.6871 24.7974 25.6613 22.6271 25.6613 20C25.6613 17.3729 23.6871 15.2026 21.1452 14.8832V10.3226H39.2097V12.2581H32.7581V27.7419H39.2097V29.6774H21.1452V25.1168ZM1.79032 13.5484H6.95161V26.4516H1.79032V13.5484ZM1.79032 27.7419H8.24194V12.2581H1.79032V10.3226H19.8548V14.8832C17.3129 15.2026 15.3387 17.3729 15.3387 20C15.3387 22.6271 17.3129 24.7974 19.8548 25.1168V29.6774H1.79032V27.7419Z" fill="black"/>
<path d="M3.72581 3.87097C4.56581 3.87097 5.27548 3.32968 5.54258 2.58065H6.95161V1.29032H5.54258C5.27548 0.54129 4.56581 0 3.72581 0C2.88581 0 2.17613 0.54129 1.90903 1.29032H0.5V2.58065H1.90903C2.17613 3.32968 2.88581 3.87097 3.72581 3.87097ZM3.72581 1.29032C4.08194 1.29032 4.37097 1.57936 4.37097 1.93548C4.37097 2.29161 4.08194 2.58065 3.72581 2.58065C3.36968 2.58065 3.08065 2.29161 3.08065 1.93548C3.08065 1.57936 3.36968 1.29032 3.72581 1.29032Z" fill="black"/>
<path d="M6.42466 5.16129H5.01562V6.45162H6.42466C6.69175 7.20065 7.40143 7.74194 8.24143 7.74194C9.08143 7.74194 9.79111 7.20065 10.0582 6.45162H11.4672V5.16129H10.0582C9.79111 4.41226 9.08143 3.87097 8.24143 3.87097C7.40143 3.87097 6.69175 4.41226 6.42466 5.16129ZM8.24143 5.16129C8.59756 5.16129 8.88659 5.45033 8.88659 5.80646C8.88659 6.16258 8.59756 6.45162 8.24143 6.45162C7.8853 6.45162 7.59627 6.16258 7.59627 5.80646C7.59627 5.45033 7.8853 5.16129 8.24143 5.16129Z" fill="black"/>
<path d="M14.8114 5.16129H13.4023V6.45162H14.8114C15.0785 7.20065 15.7882 7.74194 16.6281 7.74194C17.4682 7.74194 18.1778 7.20065 18.4449 6.45162H19.854V5.16129H18.4449C18.1778 4.41226 17.4682 3.87097 16.6281 3.87097C15.7882 3.87097 15.0785 4.41226 14.8114 5.16129ZM16.6281 5.16129C16.9843 5.16129 17.2733 5.45033 17.2733 5.80646C17.2733 6.16258 16.9843 6.45162 16.6281 6.45162C16.272 6.45162 15.983 6.16258 15.983 5.80646C15.983 5.45033 16.272 5.16129 16.6281 5.16129Z" fill="black"/>
<path d="M23.2 5.16129H21.791V6.45162H23.2C23.4671 7.20065 24.1768 7.74194 25.0168 7.74194C25.8568 7.74194 26.5665 7.20065 26.8336 6.45162H28.2426V5.16129H26.8336C26.5665 4.41226 25.8568 3.87097 25.0168 3.87097C24.1768 3.87097 23.4671 4.41226 23.2 5.16129ZM25.0168 5.16129C25.373 5.16129 25.662 5.45033 25.662 5.80646C25.662 6.16258 25.373 6.45162 25.0168 6.45162C24.6607 6.45162 24.3717 6.16258 24.3717 5.80646C24.3717 5.45033 24.6607 5.16129 25.0168 5.16129Z" fill="black"/>
<path d="M31.5868 5.16129H30.1777V6.45162H31.5868C31.8539 7.20065 32.5635 7.74194 33.4035 7.74194C34.2435 7.74194 34.9532 7.20065 35.2203 6.45162H36.6293V5.16129H35.2203C34.9532 4.41226 34.2435 3.87097 33.4035 3.87097C32.5635 3.87097 31.8539 4.41226 31.5868 5.16129ZM33.4035 5.16129C33.7597 5.16129 34.0487 5.45033 34.0487 5.80646C34.0487 6.16258 33.7597 6.45162 33.4035 6.45162C33.0474 6.45162 32.7584 6.16258 32.7584 5.80646C32.7584 5.45033 33.0474 5.16129 33.4035 5.16129Z" fill="black"/>
<path d="M12.1125 3.87097C12.9525 3.87097 13.6622 3.32968 13.9293 2.58065H15.3383V1.29032H13.9293C13.6622 0.54129 12.9525 0 12.1125 0C11.2725 0 10.5628 0.54129 10.2958 1.29032H8.88672V2.58065H10.2958C10.5628 3.32968 11.2725 3.87097 12.1125 3.87097ZM12.1125 1.29032C12.4687 1.29032 12.7577 1.57936 12.7577 1.93548C12.7577 2.29161 12.4687 2.58065 12.1125 2.58065C11.7564 2.58065 11.4674 2.29161 11.4674 1.93548C11.4674 1.57936 11.7564 1.29032 12.1125 1.29032Z" fill="black"/>
<path d="M20.4992 3.87097C21.3392 3.87097 22.0489 3.32968 22.316 2.58065H23.725V1.29032H22.316C22.0489 0.54129 21.3392 0 20.4992 0C19.6592 0 18.9496 0.54129 18.6825 1.29032H17.2734V2.58065H18.6825C18.9496 3.32968 19.6592 3.87097 20.4992 3.87097ZM20.4992 1.29032C20.8554 1.29032 21.1444 1.57936 21.1444 1.93548C21.1444 2.29161 20.8554 2.58065 20.4992 2.58065C20.1431 2.58065 19.8541 2.29161 19.8541 1.93548C19.8541 1.57936 20.1431 1.29032 20.4992 1.29032Z" fill="black"/>
<path d="M28.8879 3.87097C29.7279 3.87097 30.4376 3.32968 30.7047 2.58065H32.1137V1.29032H30.7047C30.4376 0.54129 29.7279 0 28.8879 0C28.0479 0 27.3382 0.54129 27.0711 1.29032H25.6621V2.58065H27.0711C27.3382 3.32968 28.0479 3.87097 28.8879 3.87097ZM28.8879 1.29032C29.244 1.29032 29.5331 1.57936 29.5331 1.93548C29.5331 2.29161 29.244 2.58065 28.8879 2.58065C28.5318 2.58065 28.2428 2.29161 28.2428 1.93548C28.2428 1.57936 28.5318 1.29032 28.8879 1.29032Z" fill="black"/>
<path d="M39.0914 1.29032C38.8243 0.54129 38.1146 0 37.2746 0C36.4346 0 35.725 0.54129 35.4579 1.29032H34.0488V2.58065H35.4579C35.725 3.32968 36.4346 3.87097 37.2746 3.87097C38.1146 3.87097 38.8243 3.32968 39.0914 2.58065H40.5004V1.29032H39.0914ZM37.2746 2.58065C36.9185 2.58065 36.6295 2.29161 36.6295 1.93548C36.6295 1.57936 36.9185 1.29032 37.2746 1.29032C37.6308 1.29032 37.9198 1.57936 37.9198 1.93548C37.9198 2.29161 37.6308 2.58065 37.2746 2.58065Z" fill="black"/>
<path d="M37.2746 36.129C36.4346 36.129 35.725 36.6703 35.4579 37.4194H34.0488V38.7097H35.4579C35.725 39.4587 36.4346 40 37.2746 40C38.1146 40 38.8243 39.4587 39.0914 38.7097H40.5004V37.4194H39.0914C38.8243 36.6703 38.1146 36.129 37.2746 36.129ZM37.2746 38.7097C36.9185 38.7097 36.6295 38.4206 36.6295 38.0645C36.6295 37.7084 36.9185 37.4194 37.2746 37.4194C37.6308 37.4194 37.9198 37.7084 37.9198 38.0645C37.9198 38.4206 37.6308 38.7097 37.2746 38.7097Z" fill="black"/>
<path d="M34.5758 34.8387H35.9848V33.5484H34.5758C34.3087 32.7993 33.599 32.2581 32.759 32.2581C31.919 32.2581 31.2093 32.7993 30.9422 33.5484H29.5332V34.8387H30.9422C31.2093 35.5877 31.919 36.129 32.759 36.129C33.599 36.129 34.3087 35.5877 34.5758 34.8387ZM32.759 34.8387C32.4029 34.8387 32.1138 34.5497 32.1138 34.1935C32.1138 33.8374 32.4029 33.5484 32.759 33.5484C33.1151 33.5484 33.4042 33.8374 33.4042 34.1935C33.4042 34.5497 33.1151 34.8387 32.759 34.8387Z" fill="black"/>
<path d="M26.1871 34.8387H27.5961V33.5484H26.1871C25.92 32.7993 25.2103 32.2581 24.3703 32.2581C23.5303 32.2581 22.8207 32.7993 22.5536 33.5484H21.1445V34.8387H22.5536C22.8207 35.5877 23.5303 36.129 24.3703 36.129C25.2103 36.129 25.92 35.5877 26.1871 34.8387ZM24.3703 34.8387C24.0142 34.8387 23.7252 34.5497 23.7252 34.1935C23.7252 33.8374 24.0142 33.5484 24.3703 33.5484C24.7265 33.5484 25.0155 33.8374 25.0155 34.1935C25.0155 34.5497 24.7265 34.8387 24.3703 34.8387Z" fill="black"/>
<path d="M17.8004 34.8387H19.2094V33.5484H17.8004C17.5333 32.7993 16.8236 32.2581 15.9836 32.2581C15.1436 32.2581 14.4339 32.7993 14.1668 33.5484H12.7578V34.8387H14.1668C14.4339 35.5877 15.1436 36.129 15.9836 36.129C16.8236 36.129 17.5333 35.5877 17.8004 34.8387ZM15.9836 34.8387C15.6275 34.8387 15.3385 34.5497 15.3385 34.1935C15.3385 33.8374 15.6275 33.5484 15.9836 33.5484C16.3397 33.5484 16.6288 33.8374 16.6288 34.1935C16.6288 34.5497 16.3397 34.8387 15.9836 34.8387Z" fill="black"/>
<path d="M9.41367 34.8387H10.8227V33.5484H9.41367C9.14658 32.7993 8.4369 32.2581 7.5969 32.2581C6.7569 32.2581 6.04722 32.7993 5.78013 33.5484H4.37109V34.8387H5.78013C6.04722 35.5877 6.7569 36.129 7.5969 36.129C8.4369 36.129 9.14658 35.5877 9.41367 34.8387ZM7.5969 34.8387C7.24077 34.8387 6.95174 34.5497 6.95174 34.1935C6.95174 33.8374 7.24077 33.5484 7.5969 33.5484C7.95303 33.5484 8.24206 33.8374 8.24206 34.1935C8.24206 34.5497 7.95303 34.8387 7.5969 34.8387Z" fill="black"/>
<path d="M28.8879 36.129C28.0479 36.129 27.3382 36.6703 27.0711 37.4194H25.6621V38.7097H27.0711C27.3382 39.4587 28.0479 40 28.8879 40C29.7279 40 30.4376 39.4587 30.7047 38.7097H32.1137V37.4194H30.7047C30.4376 36.6703 29.7279 36.129 28.8879 36.129ZM28.8879 38.7097C28.5318 38.7097 28.2428 38.4206 28.2428 38.0645C28.2428 37.7084 28.5318 37.4194 28.8879 37.4194C29.244 37.4194 29.5331 37.7084 29.5331 38.0645C29.5331 38.4206 29.244 38.7097 28.8879 38.7097Z" fill="black"/>
<path d="M20.4992 36.129C19.6592 36.129 18.9496 36.6703 18.6825 37.4194H17.2734V38.7097H18.6825C18.9496 39.4587 19.6592 40 20.4992 40C21.3392 40 22.0489 39.4587 22.316 38.7097H23.725V37.4194H22.316C22.0489 36.6703 21.3392 36.129 20.4992 36.129ZM20.4992 38.7097C20.1431 38.7097 19.8541 38.4206 19.8541 38.0645C19.8541 37.7084 20.1431 37.4194 20.4992 37.4194C20.8554 37.4194 21.1444 37.7084 21.1444 38.0645C21.1444 38.4206 20.8554 38.7097 20.4992 38.7097Z" fill="black"/>
<path d="M12.1125 36.129C11.2725 36.129 10.5628 36.6703 10.2958 37.4194H8.88672V38.7097H10.2958C10.5628 39.4587 11.2725 40 12.1125 40C12.9525 40 13.6622 39.4587 13.9293 38.7097H15.3383V37.4194H13.9293C13.6622 36.6703 12.9525 36.129 12.1125 36.129ZM12.1125 38.7097C11.7564 38.7097 11.4674 38.4206 11.4674 38.0645C11.4674 37.7084 11.7564 37.4194 12.1125 37.4194C12.4687 37.4194 12.7577 37.7084 12.7577 38.0645C12.7577 38.4206 12.4687 38.7097 12.1125 38.7097Z" fill="black"/>
<path d="M3.72581 36.129C2.88581 36.129 2.17613 36.6703 1.90903 37.4194H0.5V38.7097H1.90903C2.17613 39.4587 2.88581 40 3.72581 40C4.56581 40 5.27548 39.4587 5.54258 38.7097H6.95161V37.4194H5.54258C5.27548 36.6703 4.56581 36.129 3.72581 36.129ZM3.72581 38.7097C3.36968 38.7097 3.08065 38.4206 3.08065 38.0645C3.08065 37.7084 3.36968 37.4194 3.72581 37.4194C4.08194 37.4194 4.37097 37.7084 4.37097 38.0645C4.37097 38.4206 4.08194 38.7097 3.72581 38.7097Z" fill="black"/>
</g>
<defs>
<clipPath id="clip0_81_1318">
<rect width="40" height="40" fill="white" transform="translate(0.5)"/>
</clipPath>
</defs>
</svg>
