<svg width="41" height="40" viewBox="0 0 41 40" fill="none" xmlns="http://www.w3.org/2000/svg">
<g clip-path="url(#clip0_81_1323)">
<path d="M10.1775 1.93548C10.1775 0.868387 9.30909 0 8.242 0H4.37103C3.30393 0 2.43555 0.868387 2.43555 1.93548V9.03226H10.1775V1.93548ZM8.88716 7.74194H3.72587V1.93548C3.72587 1.57935 4.0149 1.29032 4.37103 1.29032H8.242C8.59813 1.29032 8.88716 1.57935 8.88716 1.93548V7.74194Z" fill="black"/>
<path d="M7.59627 1.93549H5.01562V3.22581H7.59627V1.93549Z" fill="black"/>
<path d="M24.3708 1.93548C24.3708 0.868387 23.5025 0 22.4354 0H18.5644C17.4973 0 16.6289 0.868387 16.6289 1.93548V9.03226H24.3708V1.93548ZM23.0805 7.74194H17.9192V1.93548C17.9192 1.57935 18.2083 1.29032 18.5644 1.29032H22.4354C22.7915 1.29032 23.0805 1.57935 23.0805 1.93548V7.74194Z" fill="black"/>
<path d="M21.7896 1.93549H19.209V3.22581H21.7896V1.93549Z" fill="black"/>
<path d="M38.5642 1.93548C38.5642 0.868387 37.6958 0 36.6287 0H32.7577C31.6907 0 30.8223 0.868387 30.8223 1.93548V9.03226H38.5642V1.93548ZM37.2739 7.74194H32.1126V1.93548C32.1126 1.57935 32.4016 1.29032 32.7577 1.29032H36.6287C36.9848 1.29032 37.2739 1.57935 37.2739 1.93548V7.74194Z" fill="black"/>
<path d="M35.983 1.93549H33.4023V3.22581H35.983V1.93549Z" fill="black"/>
<path d="M40.5 11.6129V10.3226H28.8871V11.6129H34.0484V16.7742H21.1452V11.6129H26.3064V10.3226H14.6935V11.6129H19.8548V16.7742H6.95161V11.6129H12.1129V10.3226H0.5V11.6129H5.66129V16.7742H0.5V18.0645H40.5V16.7742H35.3387V11.6129H40.5Z" fill="black"/>
<path d="M0.5 40H40.5V19.3548H0.5V40ZM19.8548 34.7942C17.3129 34.4748 15.3387 32.3045 15.3387 29.6774C15.3387 27.0503 17.3129 24.88 19.8548 24.5606V34.7942ZM39.2097 34.8387H36.629V24.5161H39.2097V34.8387ZM21.1452 24.5606C23.6871 24.88 25.6613 27.0503 25.6613 29.6774C25.6613 32.3045 23.6871 34.4748 21.1452 34.7942V24.5606ZM21.1452 36.0961C24.4006 35.771 26.9516 33.0168 26.9516 29.6774C26.9516 26.3381 24.4006 23.5832 21.1452 23.2587V20.6452H39.2097V23.2258H35.3387V36.129H39.2097V38.7097H21.1452V36.0961ZM1.79032 24.5161H4.37097V34.8387H1.79032V24.5161ZM1.79032 36.129H5.66129V23.2258H1.79032V20.6452H19.8548V23.2587C16.5994 23.5839 14.0484 26.3381 14.0484 29.6774C14.0484 33.0168 16.5994 35.7716 19.8548 36.0961V38.7097H1.79032V36.129Z" fill="black"/>
</g>
<defs>
<clipPath id="clip0_81_1323">
<rect width="40" height="40" fill="white" transform="translate(0.5)"/>
</clipPath>
</defs>
</svg>
