<svg width="684" height="816" viewBox="0 0 684 816" fill="none" xmlns="http://www.w3.org/2000/svg">
<g opacity="0.2" clip-path="url(#clip0_81_1717)">
<path fill-rule="evenodd" clip-rule="evenodd" d="M49.7787 629.442C57.5794 647.551 61.2292 658.992 74.6779 674.405C86.7068 688.192 96.8338 696.927 113.087 705.823C146.485 724.103 192.686 730.704 230.31 727.711C310.844 721.303 370.365 683.015 380.441 598.726C383.089 576.582 382.037 553.316 382.091 530.97C382.147 507.813 381.819 484.544 382.125 461.408C382.678 419.755 399.689 396.04 425.581 365.707C445.673 342.17 518.396 278.276 529.419 260.336C541.32 240.962 521.149 220.245 500.97 230.168C491.211 234.968 438.339 277.318 420.652 289.304C386.531 312.429 359.594 329.258 316.192 324.06C286.441 320.498 246.686 295.66 221.894 278.897L140.668 220.665C118.913 208.188 102.824 238.08 114.203 252.742C123.27 264.426 138.79 276.322 149.274 287.441C190.902 331.58 260.164 378.667 268.826 446.51C270.833 462.23 271.092 566.776 269.177 582.144C268.838 588.179 267.767 593.541 265.822 599.226L265.446 599.522C263.384 609.456 254.805 622.648 245.558 626.476L245.22 627.172C224.535 637.083 196.843 636.958 178.379 622.512C159.303 607.588 159.841 580.833 159.885 558.003C159.995 502.455 159.726 446.885 160.015 391.351C148.65 394.828 142.882 399.621 129.392 396.858C116.745 394.264 114.427 390.321 105.802 382.854C94.3769 372.966 95.6149 372.091 79.1487 372.133C67.3065 372.163 52.6396 371.361 41.1536 372.397C41.5802 416.486 41.0094 460.777 41.1447 504.902C41.2343 533.665 39.7228 573.825 43.5011 601.202C44.9059 611.385 48.1025 620.121 49.7801 629.442H49.7787Z" stroke="#00A4A2" stroke-width="3" stroke-miterlimit="22.9256" stroke-linejoin="round"/>
<path fill-rule="evenodd" clip-rule="evenodd" d="M497.699 617.439C494.234 614.43 491.294 611.371 489.248 608.737C485.892 604.42 483.112 599.304 480.941 593.672C476.787 584.177 474.451 573.504 474.451 562.218C474.451 546.909 478.746 532.723 486.056 521.086C489.522 515.238 493.882 509.997 499.18 505.676C509.996 496.262 523.583 490.657 538.345 490.657C573.637 490.657 602.238 522.696 602.238 562.218C602.238 601.741 573.637 633.782 538.345 633.782C522.903 633.782 508.741 627.648 497.698 617.438L497.699 617.439ZM486.486 457.223C484.464 433.735 483.949 433.307 459.72 433.333C451.518 433.341 413.572 432.443 408.955 434.062C407.581 437.447 407.081 809.234 408.921 814.101C412.708 815.671 483.136 815.636 490.597 814.503L490.722 677.998C499.502 683.158 513.484 704 551.034 708.685C599.336 714.714 647.101 688.301 667.416 643.807C678.281 620.013 683.521 593.836 683.312 567.655C682.933 519.982 664.988 470.493 623.044 444.771C587.954 423.252 530.978 419.869 498.744 447.096C496.175 449.265 488.936 456.261 486.486 457.222L486.486 457.223Z" stroke="#00A4A2" stroke-width="3" stroke-miterlimit="22.9256" stroke-linejoin="round"/>
<path fill-rule="evenodd" clip-rule="evenodd" d="M322.847 165.407C308.114 166.574 298.06 173.655 288.602 183.22C262.146 209.968 276.831 276.587 331.529 272.15C361.387 269.73 378.417 242.601 377.347 214.246C376.303 186.616 351.176 163.161 322.847 165.407Z" stroke="#00A4A2" stroke-width="3" stroke-miterlimit="22.9256" stroke-linejoin="round"/>
<path fill-rule="evenodd" clip-rule="evenodd" d="M60.118 163.733C11.8017 172.525 24.4608 243.065 71.5384 234.882C90.2817 231.624 103.871 212.95 100.857 193.74C97.9252 175.048 79.4629 160.213 60.1173 163.733H60.118Z" stroke="#00A4A2" stroke-width="3" stroke-miterlimit="22.9256" stroke-linejoin="round"/>
<path fill-rule="evenodd" clip-rule="evenodd" d="M570.787 166.229C523.793 172.99 525.092 238.847 575.288 237.491C609.75 236.561 617.692 191.895 596.698 175.581C590.207 170.537 579.537 164.97 570.788 166.229H570.787Z" stroke="#00A4A2" stroke-width="3" stroke-miterlimit="22.9256" stroke-linejoin="round"/>
<path fill-rule="evenodd" clip-rule="evenodd" d="M506.173 326.724C475.973 334.808 486.58 385.858 518.427 377.964C548.272 370.567 539.293 317.856 506.173 326.724Z" stroke="#00A4A2" stroke-width="3" stroke-miterlimit="22.9256" stroke-linejoin="round"/>
<path fill-rule="evenodd" clip-rule="evenodd" d="M125.144 327.041C94.4701 337.243 107.642 386.388 138.112 377.35C169.58 368.017 155.455 316.961 125.144 327.041Z" stroke="#00A4A2" stroke-width="3" stroke-miterlimit="22.9256" stroke-linejoin="round"/>
<path fill-rule="evenodd" clip-rule="evenodd" d="M64.2459 273.619C36.1358 283.367 46.3626 327.328 75.546 319.913C86.7108 317.075 93.2468 302.798 90.8637 291.586C88.307 279.555 76.9782 269.206 64.2459 273.619Z" stroke="#00A4A2" stroke-width="3" stroke-miterlimit="22.9256" stroke-linejoin="round"/>
<path fill-rule="evenodd" clip-rule="evenodd" d="M565.485 276.571C537.137 285.926 551.803 330.42 576.645 321.043C604.511 310.523 592.424 267.681 565.485 276.571Z" stroke="#00A4A2" stroke-width="3" stroke-miterlimit="22.9256" stroke-linejoin="round"/>
<path fill-rule="evenodd" clip-rule="evenodd" d="M442.785 44.6455C424.543 49.6714 434.234 83.276 454.883 74.3915C472.879 66.6484 464.708 38.6074 442.785 44.6455Z" stroke="#00A4A2" stroke-width="3" stroke-miterlimit="22.9256" stroke-linejoin="round"/>
<path fill-rule="evenodd" clip-rule="evenodd" d="M198.771 47.8556C177.794 55.3186 190.284 86.7906 210.26 77.3235C229.524 68.1956 216.48 41.5557 198.771 47.8556Z" stroke="#00A4A2" stroke-width="3" stroke-miterlimit="22.9256" stroke-linejoin="round"/>
<path fill-rule="evenodd" clip-rule="evenodd" d="M322.638 2.30114C304.422 10.8056 314.992 39.0696 334.333 31.818C354.295 24.3346 341.909 -6.6969 322.638 2.30114Z" stroke="#00A4A2" stroke-width="3" stroke-miterlimit="22.9256" stroke-linejoin="round"/>
<path fill-rule="evenodd" clip-rule="evenodd" d="M475.426 144.402C456.594 149.57 466.083 179.469 485.533 172.443C501.216 166.776 495.809 138.807 475.426 144.402Z" stroke="#00A4A2" stroke-width="3" stroke-miterlimit="22.9256" stroke-linejoin="round"/>
<path fill-rule="evenodd" clip-rule="evenodd" d="M368.1 101.655C350.62 106.804 356.534 135.372 376.99 129.21C393.492 124.238 387.081 96.0633 368.1 101.655Z" stroke="#00A4A2" stroke-width="3" stroke-miterlimit="22.9256" stroke-linejoin="round"/>
<path fill-rule="evenodd" clip-rule="evenodd" d="M162.968 146.403C144.965 152.663 152.746 178.357 172.026 173.458C188.527 169.266 183.047 139.42 162.968 146.403Z" stroke="#00A4A2" stroke-width="3" stroke-miterlimit="22.9256" stroke-linejoin="round"/>
<path fill-rule="evenodd" clip-rule="evenodd" d="M251.147 112.601C232.981 120.229 243.63 144.21 259.946 138.342C277.45 132.046 267.916 105.558 251.147 112.601Z" stroke="#00A4A2" stroke-width="3" stroke-miterlimit="22.9256" stroke-linejoin="round"/>
<path fill-rule="evenodd" clip-rule="evenodd" d="M553.867 97.0722C537.9 102.896 548.481 129.656 565.247 121.42C580.699 113.83 571.393 90.6792 553.867 97.0722Z" stroke="#00A4A2" stroke-width="3" stroke-miterlimit="22.9256" stroke-linejoin="round"/>
<path fill-rule="evenodd" clip-rule="evenodd" d="M437.041 209.834C418.409 214.544 428.294 241.542 444.434 235.871C460.698 230.156 453.652 205.634 437.041 209.834Z" stroke="#00A4A2" stroke-width="3" stroke-miterlimit="22.9256" stroke-linejoin="round"/>
<path fill-rule="evenodd" clip-rule="evenodd" d="M85.7895 92.1823C69.9482 99.0892 79.9686 123.244 96.5865 116.811C112.286 110.732 103.073 84.6472 85.7895 92.1823Z" stroke="#00A4A2" stroke-width="3" stroke-miterlimit="22.9256" stroke-linejoin="round"/>
<path fill-rule="evenodd" clip-rule="evenodd" d="M627.551 275.613C609.683 281.7 620.566 305.55 634.602 300.447C652.189 294.053 642.837 270.405 627.551 275.613Z" stroke="#00A4A2" stroke-width="3" stroke-miterlimit="22.9256" stroke-linejoin="round"/>
<path fill-rule="evenodd" clip-rule="evenodd" d="M11.7703 273.898C-7.00168 277.707 0.594613 301.688 15.6929 298.882C32.604 295.74 28.0266 270.6 11.7703 273.898Z" stroke="#00A4A2" stroke-width="3" stroke-miterlimit="22.9256" stroke-linejoin="round"/>
<path d="M538.345 623.803C568.711 623.803 593.328 596.231 593.328 562.219C593.328 528.208 568.711 500.636 538.345 500.636C507.978 500.636 483.361 528.208 483.361 562.219C483.361 596.231 507.978 623.803 538.345 623.803Z" stroke="#00A4A2" stroke-width="3" stroke-miterlimit="22.9256" stroke-linejoin="round"/>
</g>
<defs>
<clipPath id="clip0_81_1717">
<rect width="684" height="816" fill="white"/>
</clipPath>
</defs>
</svg>
